<?xml version="1.0" encoding="UTF-8"?>
<svg width="119px" height="21px" viewBox="0 0 119 21" version="1.1" xmlns="http://www.w3.org/2000/svg" xmlns:xlink="http://www.w3.org/1999/xlink">
    <!-- Generator: Sketch 46.2 (44496) - http://www.bohemiancoding.com/sketch -->
    <title>Lexus-logo</title>
    <desc>Created with Sketch.</desc>
    <defs></defs>
    <g id="1920" stroke="none" stroke-width="1" fill="none" fill-rule="evenodd">
        <g id="Sp_Nurture_1920" transform="translate(-1220.000000, -7789.000000)" fill-rule="nonzero" fill="#323233">
            <g id="Content" transform="translate(280.000000, 1114.000000)">
                <g id="4.Quote" transform="translate(0.000000, 6494.000000)">
                    <g id="Lexus-logo" transform="translate(939.000000, 180.000000)">
                        <path d="M115.68,10.8 L106.32,10.8 C106.32,8.4 108.72,8.64 108.72,8.64 L118.8,8.64 L118.8,6.48 L108.48,6.48 C101.52,7.2 101.76,12.72 101.76,12.72 L113.76,12.72 C115.44,12.72 115.44,13.92 115.44,13.92 C115.44,15.36 114.24,15.12 114.24,15.12 L100.8,15.12 L100.8,6.48 L96.96,6.48 L96.96,15.12 L89.76,15.12 C87.36,15.12 87.36,13.92 87.36,13.92 L87.36,6.48 L81.36,6.48 L75.12,10.08 L69.6,6.48 L56.16,6.48 C49.2,6.96 48.72,12 48.72,12 L51.12,12 C49.92,12.48 48.72,15.12 48.72,15.12 L40.32,15.12 C37.68,15.12 37.92,12.96 37.92,12.96 L37.92,6.48 L33.6,6.48 L33.6,12 C33.6,17.52 38.64,17.04 38.64,17.04 L67.92,17.04 L73.44,13.68 L78.24,17.04 L84.24,17.04 L76.8,11.28 L83.04,7.68 L83.04,13.92 C83.76,16.8 87.6,17.04 87.6,17.04 L116.16,17.04 C119.76,17.04 119.76,13.92 119.76,13.92 C119.76,10.8 115.68,10.8 115.68,10.8 Z M67.44,15.12 L53.28,15.12 C53.52,12.72 55.92,12.72 55.92,12.72 L64.32,12.72 L64.32,10.56 L53.28,10.56 C53.76,8.4 56.16,8.4 56.16,8.4 L65.52,8.4 L65.52,7.68 L72,12.24 L67.44,15.12 Z" id="Shape"></path>
                        <path d="M26.16,14.88 C25.92,14.88 25.68,14.88 25.68,14.88 L13.68,14.88 C13.68,14.88 11.76,14.88 13.68,12.48 L19.44,4.08 C19.44,4.08 19.68,3.84 19.92,3.6 C20.16,3.12 20.4,2.64 19.68,2.4 C18.24,2.16 16.8,1.92 15.12,1.92 C6.72,1.92 1.44,6.72 1.44,12 C1.44,17.28 6.24,21.84 15.12,21.84 C19.92,21.84 23.76,20.4 26.16,18 L23.76,18 C21.6,19.68 18.72,20.64 15.12,20.64 C7.2,20.88 3.36,17.04 3.36,12 C3.36,7.2 7.92,2.88 15.12,2.88 C15.36,2.88 15.84,2.88 16.08,2.88 C16.32,3.12 16.32,3.36 15.36,4.32 C15.36,4.32 13.68,6.48 11.52,9.6 C9.12,12.72 8.88,13.44 8.88,13.44 C8.88,13.44 6.48,17.04 12.24,17.28 L26.88,17.28 C28.08,15.84 28.8,13.92 28.8,12 C28.8,7.92 25.92,4.56 21.12,2.88 L20.88,3.84 C25.2,5.28 27.12,8.64 27.12,12 C27.12,12.96 27.12,13.44 26.64,14.16 C26.64,14.4 26.4,14.64 26.16,14.88 Z" id="Shape"></path>
                    </g>
                </g>
            </g>
        </g>
    </g>
</svg>